<svg id="Capa_1" enable-background="new 0 0 512 512" height="512" viewBox="0 0 512 512" width="512" xmlns="http://www.w3.org/2000/svg"><g><path d="m297.8 331-25.8 30h-212l-25.8-30 30-90h203.6z" fill="#ff435b"/><path d="m297.8 331-25.8 30h-106v-120h101.8z" fill="#d0004f"/><path d="m276.2 361h-220.4l30-90h160.4z" fill="#3e4d59"/><path d="m276.2 361h-110.2v-90h80.2z" fill="#242833"/><g><path d="m377 226h30v271h-30z" fill="#d5e8fe"/></g><path d="m392 226h15v271h-15z" fill="#b5dbff"/><g><g><g><g><path d="m392 0c-66.301 0-120 54.699-120 121s53.699 120 120 120 120-53.699 120-120-53.699-121-120-121z" fill="#5ecef4"/></g></g></g></g><path d="m512 121c0 66.301-53.699 120-120 120v-241c66.301 0 120 54.699 120 121z" fill="#4895ff"/><path d="m30 421h90v91h-90z" fill="#3e4d59"/><path d="m212 421h90v91h-90z" fill="#3e4d59"/><path d="m407 61h-45v120h30v-30h15c24.901 0 45-20.099 45-45s-20.099-45-45-45zm0 60h-15v-30h15c8.401 0 15 6.599 15 15s-6.599 15-15 15z" fill="#edf5ff"/><path d="m452 106c0 24.901-20.099 45-45 45h-15v-30h15c8.401 0 15-6.599 15-15s-6.599-15-15-15h-15v-30h15c24.901 0 45 20.099 45 45z" fill="#d5e8fe"/><g><path d="m347 482h90v30h-90z" fill="#3e4d59"/></g><path d="m392 482h45v30h-45z" fill="#242833"/><path d="m0 331h332v120h-332z" fill="#ff7b4a"/><path d="m166 331h166v120h-166z" fill="#ff435b"/><path d="m30 376h30v30h-30z" fill="#ffc550"/><path d="m272 376h30v30h-30z" fill="#ff9827"/></g></svg>